<svg data-v-423bf9ae="" xmlns="http://www.w3.org/2000/svg" viewBox="0 0 215.98061838011733 60" class="font"><!----><!----><defs data-v-423bf9ae=""><linearGradient data-v-423bf9ae="" gradientTransform="rotate(25)" id="bedecc8b-8f28-4b65-b663-9104ad00aff5" x1="0%" y1="0%" x2="100%" y2="0%"><stop data-v-423bf9ae="" offset="0%" style="stop-color: rgb(233, 142, 13); stop-opacity: 1;"></stop><stop data-v-423bf9ae="" offset="100%" style="stop-color: rgb(21, 54, 241); stop-opacity: 1;"></stop></linearGradient></defs><g data-v-423bf9ae="" id="2e619c33-666b-4b58-82c9-f3471a444204" fill="url(#bedecc8b-8f28-4b65-b663-9104ad00aff5)" transform="matrix(3.461961953204006,0,0,3.461961953204006,-6.55862678762702,2.5660479534853415)"><path d="M11.80 10.64L11.80 10.64L11.80 10.64Q11.80 10.67 11.79 10.73L11.79 10.73L11.79 10.73Q11.77 10.79 11.72 10.86L11.72 10.86L11.72 10.86Q11.68 10.92 11.58 10.97L11.58 10.97L11.58 10.97Q11.48 11.02 11.31 11.02L11.31 11.02L11.31 11.02Q11.17 11.02 11.03 10.99L11.03 10.99L11.03 10.99Q10.88 10.96 10.68 10.91L10.68 10.91L10.68 10.91Q10.61 10.88 10.58 10.84L10.58 10.84L10.58 10.84Q10.49 10.72 10.40 10.56L10.40 10.56L10.40 10.56Q10.32 10.39 10.22 10.16L10.22 10.16L10.22 10.16Q9.79 9.13 9.35 7.28L9.35 7.28L9.35 7.28Q8.89 7.35 8.38 7.36L8.38 7.36L8.38 7.36Q7.87 7.38 7.29 7.41L7.29 7.41L7.29 7.41Q6.72 7.43 6.35 7.46L6.35 7.46L6.35 7.46Q5.98 7.49 5.80 7.50L5.80 7.50L5.80 7.50Q5.47 8.04 5.20 8.58L5.20 8.58L5.20 8.58Q4.93 9.13 4.59 9.67L4.59 9.67L4.59 9.67Q4.59 9.69 4.58 9.69L4.58 9.69L4.58 9.69Q4.05 10.49 3.49 10.92L3.49 10.92L3.49 10.92Q3.21 11.13 2.83 11.22L2.83 11.22L2.83 11.22Q2.46 11.31 2.11 11.03L2.11 11.03L2.11 11.03Q1.86 10.84 1.90 10.71L1.90 10.71L1.90 10.71Q1.93 10.58 2.14 10.46L2.14 10.46L2.14 10.46Q2.34 10.33 2.63 10.16L2.63 10.16L2.63 10.16Q2.93 9.98 3.21 9.67L3.21 9.67L3.21 9.67Q3.50 9.34 3.86 8.77L3.86 8.77L3.86 8.77Q4.21 8.20 4.56 7.63L4.56 7.63L4.28 7.63L4.28 7.63Q4.03 7.63 3.89 7.55L3.89 7.55L3.89 7.55Q3.70 7.43 3.70 7.21L3.70 7.21L3.70 7.21Q3.70 7.18 3.72 7.12L3.72 7.12L3.72 7.12Q3.74 7.06 3.82 7L3.82 7L3.82 7Q3.86 6.99 3.95 6.96L3.95 6.96L3.95 6.96Q4.09 6.92 4.30 6.87L4.30 6.87L4.30 6.87Q4.40 6.86 4.46 6.84L4.46 6.84L4.46 6.84Q4.52 6.82 4.58 6.80L4.58 6.80L4.58 6.80Q4.65 6.78 4.75 6.75L4.75 6.75L4.75 6.75Q4.86 6.73 5.07 6.71L5.07 6.71L5.07 6.71Q5.47 6.02 5.94 5.03L5.94 5.03L5.94 5.03Q6.41 4.05 6.90 2.77L6.90 2.77L6.90 2.77Q7.14 2.17 7.34 1.69L7.34 1.69L7.34 1.69Q7.55 1.22 7.66 0.85L7.66 0.85L7.66 0.85Q7.81 0.41 7.85 0.22L7.85 0.22L7.85 0.22Q7.90 0.03 7.90-0.04L7.90-0.04L7.90-0.04Q7.90-0.06 7.89-0.06L7.89-0.06L7.89-0.06Q7.88-0.07 7.88-0.08L7.88-0.08L7.88-0.08Q7.83-0.18 7.83-0.28L7.83-0.28L7.83-0.28Q7.83-0.53 8.08-0.62L8.08-0.62L8.08-0.62Q8.20-0.69 8.53-0.69L8.53-0.69L8.53-0.69Q8.79-0.69 9.28-0.36L9.28-0.36L9.28-0.36Q9.56-0.17 9.68-0.04L9.68-0.04L9.68-0.04Q9.80 0.08 9.80 0.21L9.80 0.21L9.80 0.21Q9.80 0.52 9.76 0.73L9.76 0.73L9.76 0.73Q9.74 0.80 9.74 0.84L9.74 0.84L9.74 0.84Q9.73 0.88 9.73 0.91L9.73 0.91L9.73 0.97L9.73 0.97Q9.73 2.07 9.90 3.43L9.90 3.43L9.90 3.43Q10.07 4.79 10.42 6.40L10.42 6.40L10.42 6.40Q10.68 7.69 10.93 8.62L10.93 8.62L10.93 8.62Q11.17 9.56 11.40 10.15L11.40 10.15L11.40 10.15Q11.44 10.26 11.52 10.33L11.52 10.33L11.52 10.33Q11.70 10.46 11.76 10.53L11.76 10.53L11.76 10.53Q11.80 10.57 11.80 10.64ZM6.27 6.58L9.18 6.51L9.18 6.51Q9.16 6.37 9.11 6.10L9.11 6.10L9.11 6.10Q9.07 5.82 9.00 5.38L9.00 5.38L9.00 5.38Q8.54 2.62 8.46 1.71L8.46 1.71L8.46 1.69L8.46 1.69Q8.46 1.60 8.45 1.50L8.45 1.50L8.45 1.50Q8.44 1.41 8.43 1.32L8.43 1.32L8.43 1.32Q8.27 1.68 8.04 2.28L8.04 2.28L8.04 2.28Q7.80 2.88 7.48 3.74L7.48 3.74L7.48 3.74Q7.13 4.69 6.83 5.39L6.83 5.39L6.83 5.39Q6.52 6.09 6.27 6.58L6.27 6.58ZM15.47 5.53L15.47 5.53L15.47 5.53Q15.53 5.53 15.66 5.59L15.66 5.59L15.66 5.59Q15.79 5.66 15.79 5.95L15.79 5.95L15.79 5.95Q15.79 6.44 15.20 8.29L15.20 8.29L15.20 8.29Q14.97 8.99 14.78 9.41L14.78 9.41L14.78 9.41Q14.60 9.83 14.46 10.05L14.46 10.05L14.46 10.05Q14.31 10.28 14.19 10.35L14.19 10.35L14.19 10.35Q14.07 10.42 13.97 10.42L13.97 10.42L13.97 10.42Q13.40 10.42 13.03 9.77L13.03 9.77L13.03 9.77Q12.98 9.70 12.93 9.49L12.93 9.49L12.93 9.49Q12.88 9.28 12.85 8.76L12.85 8.76L12.85 7.69L12.85 6.48L12.85 6.48Q12.85 6.45 12.80 6.35L12.80 6.35L12.80 6.35Q12.74 6.24 12.49 6.08L12.49 6.08L12.49 6.08Q12.40 6.52 12.15 7.39L12.15 7.39L12.15 7.39Q12.15 7.43 12.07 7.60L12.07 7.60L12.07 7.60Q12.04 7.66 12.03 7.69L12.03 7.69L12.03 7.69Q12.01 7.71 12.00 7.73L12.00 7.73L12.00 7.73Q12.00 7.78 11.93 7.83L11.93 7.83L11.93 7.83Q11.86 7.90 11.76 7.85L11.76 7.85L11.55 7.80L11.55 7.80Q11.40 7.74 11.40 7.60L11.40 7.60L11.40 7.60Q11.40 7.59 11.40 7.55L11.40 7.55L11.40 7.55Q11.40 7.52 11.42 7.43L11.42 7.43L11.42 7.43Q11.44 7.34 11.48 7.17L11.48 7.17L11.48 7.17Q11.52 7 11.61 6.71L11.61 6.71L11.61 6.71Q11.79 6.02 11.79 5.60L11.79 5.60L11.79 5.60Q11.79 5.57 11.77 5.47L11.77 5.47L11.77 5.47Q11.76 5.36 11.69 5.17L11.69 5.17L11.69 5.17Q11.55 4.83 11.55 4.56L11.55 4.56L11.55 4.56Q11.55 4.27 11.61 4.09L11.61 4.09L11.61 4.09Q11.66 3.91 11.75 3.80L11.75 3.80L11.75 3.80Q11.83 3.70 11.94 3.65L11.94 3.65L11.94 3.65Q12.04 3.61 12.14 3.61L12.14 3.61L12.14 3.61Q12.19 3.61 12.28 3.63L12.28 3.63L12.28 3.63Q12.36 3.65 12.44 3.72L12.44 3.72L12.44 3.72Q12.52 3.79 12.58 3.93L12.58 3.93L12.58 3.93Q12.64 4.06 12.66 4.27L12.66 4.27L12.66 4.27Q12.67 4.41 12.63 4.76L12.63 4.76L12.63 4.76Q12.60 4.96 12.60 5.05L12.60 5.05L12.60 5.05Q12.60 5.15 12.60 5.21L12.60 5.21L12.60 5.21Q12.61 5.24 12.71 5.31L12.71 5.31L12.71 5.31Q12.81 5.38 13.12 5.53L13.12 5.53L13.12 5.53Q13.87 5.89 13.87 6.47L13.87 6.47L13.87 6.47Q13.87 6.50 13.87 6.57L13.87 6.57L13.87 6.57Q13.86 6.65 13.85 6.80L13.85 6.80L13.85 6.80Q13.85 6.96 13.82 7.22L13.82 7.22L13.82 7.22Q13.79 7.49 13.75 7.91L13.75 7.91L13.75 7.91Q13.72 8.20 13.70 8.40L13.70 8.40L13.70 8.40Q13.68 8.60 13.66 8.72L13.66 8.72L13.66 8.72Q13.65 8.85 13.64 8.93L13.64 8.93L13.64 8.93Q13.64 9.02 13.64 9.10L13.64 9.10L13.64 9.10Q13.64 9.44 13.71 9.52L13.71 9.52L13.71 9.52Q13.78 9.60 13.85 9.60L13.85 9.60L13.85 9.60Q13.86 9.59 13.91 9.53L13.91 9.53L13.91 9.53Q13.96 9.46 14.04 9.30L14.04 9.30L14.04 9.30Q14.11 9.14 14.22 8.87L14.22 8.87L14.22 8.87Q14.32 8.60 14.48 8.16L14.48 8.16L14.48 8.16Q14.95 6.79 15.06 6.05L15.06 6.05L15.06 6.05Q15.11 5.73 15.23 5.63L15.23 5.63L15.23 5.63Q15.36 5.53 15.47 5.53ZM18.17 2.66L18.17 2.66L18.17 2.66Q18.37 2.69 18.37 2.87L18.37 2.87L18.37 2.97L18.37 2.97Q18.37 3.04 18.33 3.09L18.33 3.09L18.33 3.09Q18.28 3.15 18.14 3.21L18.14 3.21L18.14 3.21Q18.00 3.26 17.51 3.35L17.51 3.35L17.51 3.35Q17.19 3.42 16.98 3.43L16.98 3.43L16.98 3.43Q16.77 3.44 16.62 3.44L16.62 3.44L16.18 3.47L16.18 3.47Q16.16 3.67 16.12 4.09L16.12 4.09L16.12 4.09Q16.09 4.52 16.02 5.15L16.02 5.15L16.02 5.15Q15.96 5.68 15.93 6.02L15.93 6.02L15.93 6.02Q15.90 6.36 15.88 6.55L15.88 6.55L15.88 6.55Q15.86 6.75 15.86 6.83L15.86 6.83L15.86 6.83Q15.85 6.92 15.85 6.94L15.85 6.94L15.85 6.94Q15.85 7.62 15.86 8.03L15.86 8.03L15.86 8.03Q15.86 8.44 15.88 8.60L15.88 8.60L15.88 8.60Q15.92 9.04 16.00 9.18L16.00 9.18L16.00 9.18Q16.07 9.32 16.10 9.32L16.10 9.32L16.10 9.32Q16.16 9.30 16.21 9.23L16.21 9.23L16.21 9.23Q16.27 9.16 16.34 9.03L16.34 9.03L16.34 9.03Q16.42 8.90 16.53 8.67L16.53 8.67L16.53 8.67Q16.69 8.29 16.86 7.71L16.86 7.71L16.86 7.71Q17.04 7.13 17.22 6.36L17.22 6.36L17.22 6.36Q17.26 6.17 17.30 6.05L17.30 6.05L17.30 6.05Q17.35 5.92 17.37 5.82L17.37 5.82L17.37 5.82Q17.40 5.75 17.46 5.64L17.46 5.64L17.46 5.64Q17.53 5.53 17.67 5.53L17.67 5.53L17.67 5.53Q17.79 5.53 17.91 5.62L17.91 5.62L17.91 5.62Q18.02 5.71 18.02 5.95L18.02 5.95L18.02 5.95Q18.02 6.22 17.89 6.75L17.89 6.75L17.89 6.75Q17.77 7.29 17.49 8.13L17.49 8.13L17.49 8.13Q17.12 9.21 16.78 9.72L16.78 9.72L16.78 9.72Q16.44 10.23 16.06 10.23L16.06 10.23L16.06 10.23Q15.53 10.23 15.20 9.42L15.20 9.42L15.20 9.42Q14.92 8.69 14.92 7.62L14.92 7.62L14.92 7.62Q14.92 7.27 15.02 6.27L15.02 6.27L15.02 6.27Q15.11 5.28 15.30 3.50L15.30 3.50L15.30 3.50Q15.18 3.53 15.06 3.49L15.06 3.49L15.06 3.49Q14.95 3.46 14.91 3.43L14.91 3.43L14.91 3.43Q14.88 3.42 14.84 3.37L14.84 3.37L14.84 3.37Q14.80 3.33 14.69 3.29L14.69 3.29L14.69 3.29Q14.49 3.22 14.44 3.12L14.44 3.12L14.44 3.12Q14.39 3.01 14.39 2.94L14.39 2.94L14.39 2.94Q14.39 2.90 14.44 2.79L14.44 2.79L14.44 2.79Q14.49 2.69 14.77 2.63L14.77 2.63L14.77 2.63Q14.85 2.62 14.91 2.61L14.91 2.61L14.91 2.61Q14.97 2.60 15.02 2.60L15.02 2.60L15.02 2.60Q15.08 2.59 15.15 2.58L15.15 2.58L15.15 2.58Q15.23 2.58 15.36 2.56L15.36 2.56L15.36 2.56Q15.37 2.41 15.39 2.18L15.39 2.18L15.39 2.18Q15.40 1.96 15.41 1.67L15.41 1.67L15.34 1.43L15.34 1.43Q15.34 1.34 15.36 1.30L15.36 1.30L15.36 1.30Q15.47 1.08 15.71 1.08L15.71 1.08L15.71 1.08Q15.96 1.08 16.42 1.37L16.42 1.37L16.42 1.37Q16.51 1.44 16.51 1.54L16.51 1.54L16.51 1.86L16.51 1.90L16.51 1.90Q16.48 2.06 16.44 2.22L16.44 2.22L16.44 2.22Q16.41 2.38 16.37 2.58L16.37 2.58L16.37 2.58Q16.46 2.58 16.48 2.58L16.48 2.58L16.48 2.58Q16.51 2.58 16.52 2.58L16.52 2.58L16.52 2.58Q16.53 2.59 16.59 2.60L16.59 2.60L16.59 2.60Q16.65 2.60 16.84 2.60L16.84 2.60L16.84 2.60Q17.02 2.60 17.13 2.61L17.13 2.61L17.13 2.61Q17.23 2.62 17.35 2.63L17.35 2.63L17.35 2.63Q17.47 2.63 17.65 2.64L17.65 2.64L17.65 2.64Q17.84 2.65 18.17 2.66ZM25.93 6.13L25.93 6.13L25.93 6.13Q26.21 6.54 26.34 6.97L26.34 6.97L26.34 6.97Q26.47 7.41 26.52 7.80L26.52 7.80L26.52 7.80Q26.56 8.13 26.48 8.52L26.48 8.52L26.48 8.52Q26.40 8.90 26.27 9.24L26.27 9.24L26.27 9.24Q26.14 9.58 25.98 9.84L25.98 9.84L25.98 9.84Q25.82 10.11 25.69 10.21L25.69 10.21L25.69 10.21Q25.61 10.28 25.52 10.34L25.52 10.34L25.52 10.34Q25.44 10.40 25.37 10.46L25.37 10.46L25.37 10.46Q25.05 10.70 24.77 10.86L24.77 10.86L24.77 10.86Q24.50 11.02 24.14 11.12L24.14 11.12L24.14 11.12Q23.90 11.19 23.68 11.21L23.68 11.21L23.68 11.21Q23.46 11.23 23.25 11.23L23.25 11.23L23.24 11.23L23.06 11.23L23.06 11.23Q22.85 11.20 22.65 11.16L22.65 11.16L22.65 11.16Q22.44 11.12 22.25 11.03L22.25 11.03L22.25 11.03Q22.23 11.03 22.23 11.04L22.23 11.04L22.23 11.04Q22.22 11.05 22.20 11.05L22.20 11.05L22.20 11.05Q22.13 11.06 22.09 11.07L22.09 11.07L22.09 11.07Q22.04 11.07 21.99 11.07L21.99 11.07L21.99 11.07Q21.67 11.07 21.50 10.96L21.50 10.96L21.50 10.96Q21.32 10.84 21.25 10.70L21.25 10.70L21.25 10.70Q21.13 10.50 21.07 9.91L21.07 9.91L21.07 9.91Q20.99 9.31 20.99 7.27L20.99 7.27L20.99 7.27Q21 7.13 21.01 6.99L21.01 6.99L21.01 6.99Q21.01 6.86 21.01 6.72L21.01 6.72L21.01 6.72Q21.01 6.64 21.01 6.56L21.01 6.56L21.01 6.56Q21.01 6.48 21 6.40L21 6.40L21 6.40Q21.03 6.33 21.03 6.26L21.03 6.26L21.03 6.26Q21.03 6.20 21.03 6.13L21.03 6.13L21.03 6.12L21.03 6.12Q21.01 5.57 21.04 4.82L21.04 4.82L21.04 4.82Q21.07 4.07 21.13 3.12L21.13 3.12L21.13 3.12Q21.15 2.59 21.18 2.13L21.18 2.13L21.18 2.13Q21.21 1.67 21.22 1.41L21.22 1.41L21.22 1.41Q21.22 1.15 21.25 0.85L21.25 0.85L21.25 0.85Q21.28 0.56 21.25 0.28L21.25 0.28L21.31-0.36L21.31-0.36Q21.31-0.43 21.36-0.49L21.36-0.49L21.36-0.49Q21.62-0.71 21.98-0.71L21.98-0.71L22.05-0.71L22.05-0.71Q22.54-0.69 22.69-0.29L22.69-0.29L22.69-0.29Q22.76-0.34 22.83-0.38L22.83-0.38L22.83-0.38Q22.90-0.42 22.97-0.45L22.97-0.45L22.97-0.45Q23.65-0.76 24.37-0.74L24.37-0.74L24.37-0.74Q25.07-0.73 25.86-0.36L25.86-0.36L25.87-0.36L25.87-0.36Q26.42-0.06 26.67 0.48L26.67 0.48L26.67 0.48Q26.92 1.01 26.95 1.64L26.95 1.64L26.95 1.64Q26.98 2.09 26.89 2.71L26.89 2.71L26.89 2.71Q26.80 3.33 26.42 4.10L26.42 4.10L26.42 4.10Q26.38 4.20 26.33 4.28L26.33 4.28L26.33 4.28Q26.28 4.37 26.22 4.47L26.22 4.47L26.22 4.47Q25.83 5.11 25.30 5.54L25.30 5.54L25.30 5.54Q25.47 5.68 25.63 5.82L25.63 5.82L25.63 5.82Q25.79 5.95 25.93 6.13ZM24.82 9.52L24.82 9.52L24.82 9.52Q24.95 9.38 25.07 9.19L25.07 9.19L25.07 9.19Q25.19 9.00 25.26 8.76L25.26 8.76L25.26 8.76Q25.34 8.51 25.35 8.19L25.35 8.19L25.35 8.19Q25.37 7.87 25.31 7.46L25.31 7.46L25.31 7.46Q25.23 7.01 24.99 6.70L24.99 6.70L24.99 6.70Q24.75 6.38 24.51 6.15L24.51 6.15L24.51 6.15Q24.49 6.13 24.43 6.08L24.43 6.08L24.43 6.08Q24.21 6.17 24.06 6.22L24.06 6.22L24.06 6.22Q23.91 6.27 23.79 6.29L23.79 6.29L23.79 6.29Q23.66 6.31 23.52 6.31L23.52 6.31L23.52 6.31Q23.38 6.30 23.17 6.29L23.17 6.29L23.17 6.29Q23.04 6.29 22.88 6.24L22.88 6.24L22.88 6.24Q22.72 6.19 22.59 6.10L22.59 6.10L22.59 6.10Q22.46 6.01 22.37 5.87L22.37 5.87L22.37 5.87Q22.27 5.73 22.29 5.52L22.29 5.52L22.29 5.52Q22.30 5.32 22.44 5.13L22.44 5.13L22.44 5.13Q22.57 4.94 22.82 4.86L22.82 4.86L22.82 4.86Q23.23 4.72 23.60 4.77L23.60 4.77L23.60 4.77Q23.98 4.82 24.43 5.01L24.43 5.01L24.43 5.01Q24.46 5.00 24.51 4.94L24.51 4.94L24.51 4.94Q25.17 4.31 25.59 2.80L25.59 2.80L25.59 2.80Q25.63 2.65 25.68 2.42L25.68 2.42L25.68 2.42Q25.73 2.20 25.76 1.97L25.76 1.97L25.76 1.97Q25.79 1.76 25.77 1.60L25.77 1.60L25.77 1.60Q25.76 1.44 25.73 1.29L25.73 1.29L25.73 1.29Q25.61 0.52 25.14 0.27L25.14 0.27L25.14 0.27Q24.29-0.20 23.37 0.36L23.37 0.36L23.37 0.36Q23.00 0.59 22.61 0.98L22.61 0.98L22.61 0.98Q22.60 0.99 22.60 1.01L22.60 1.01L22.60 1.01Q22.43 1.67 22.27 3.72L22.27 3.72L22.27 3.72Q22.20 4.51 22.18 5.06L22.18 5.06L22.18 5.06Q22.15 5.61 22.13 5.96L22.13 5.96L22.13 5.96Q22.13 6.10 22.13 6.24L22.13 6.24L22.13 6.24Q22.12 6.37 22.12 6.51L22.12 6.51L22.12 6.51Q22.11 6.59 22.11 6.67L22.11 6.67L22.11 6.67Q22.11 6.75 22.11 6.82L22.11 6.82L22.12 6.82L22.12 6.82Q22.09 6.97 22.09 7.12L22.09 7.12L22.09 7.12Q22.09 7.27 22.08 7.42L22.08 7.42L22.08 7.42Q22.08 7.53 22.08 7.62L22.08 7.62L22.08 7.62Q22.08 7.71 22.09 7.83L22.09 7.83L22.09 7.83Q22.09 7.81 22.08 7.81L22.08 7.81L22.08 7.81Q22.05 8.48 22.04 8.74L22.04 8.74L22.04 8.74Q22.04 9.00 22.04 9.04L22.04 9.04L22.04 9.04Q22.04 9.32 22.06 9.55L22.06 9.55L22.06 9.55Q22.08 9.79 22.11 9.95L22.11 9.95L22.11 9.95Q22.46 10.22 22.82 10.30L22.82 10.30L22.82 10.30Q22.89 10.33 23.04 10.34L23.04 10.34L23.04 10.34Q23.20 10.35 23.28 10.33L23.28 10.33L23.28 10.33Q23.51 10.32 23.76 10.22L23.76 10.22L23.76 10.22Q24.05 10.11 24.33 9.93L24.33 9.93L24.33 9.93Q24.60 9.76 24.82 9.52ZM32.06 11.13L32.06 11.13L32.06 11.13Q32.34 11.26 32.34 11.56L32.34 11.56L32.34 11.56Q32.34 11.66 32.27 11.80L32.27 11.80L32.20 11.91L32.06 11.90L32.06 11.90Q31.65 11.83 31.47 11.81L31.47 11.81L31.47 11.81Q31.28 11.79 31.21 11.79L31.21 11.79L31.21 11.79Q31.14 11.79 30.98 11.82L30.98 11.82L30.98 11.82Q30.81 11.86 30.49 11.97L30.49 11.97L30.49 11.97Q30.51 12.03 30.51 12.12L30.51 12.12L30.51 12.12Q30.51 12.21 30.52 12.33L30.52 12.33L30.52 12.33Q30.53 12.57 30.53 12.72L30.53 12.72L30.53 12.72Q30.53 12.87 30.53 12.96L30.53 12.96L30.53 12.96Q30.53 14.73 29.96 15.64L29.96 15.64L29.96 15.64Q29.34 16.59 28.14 16.59L28.14 16.59L28.14 16.59Q27.33 16.59 26.78 16.04L26.78 16.04L26.78 16.04Q26.24 15.48 26.24 14.67L26.24 14.67L26.24 14.67Q26.24 13.47 27.69 12.43L27.69 12.43L27.69 12.43Q28.71 11.70 29.64 11.48L29.64 11.48L29.64 11.48Q29.64 11.28 29.62 10.99L29.62 10.99L29.62 10.99Q29.60 10.70 29.57 10.32L29.57 10.32L29.57 10.32Q29.54 10.16 29.53 10.05L29.53 10.05L29.53 10.05Q29.53 9.94 29.51 9.83L29.51 9.83L29.51 9.83Q29.48 9.90 29.46 9.95L29.46 9.95L29.46 9.95Q29.44 10.00 29.41 10.07L29.41 10.07L29.40 10.07L29.40 10.07Q29.11 10.67 28.62 10.67L28.62 10.67L28.62 10.67Q28.08 10.67 27.75 10.12L27.75 10.12L27.75 10.12Q27.57 9.79 27.50 9.35L27.50 9.35L27.50 9.35Q27.34 9.74 27.22 9.98L27.22 9.98L27.22 9.98Q27.09 10.22 26.98 10.35L26.98 10.35L26.98 10.35Q26.87 10.49 26.78 10.53L26.78 10.53L26.78 10.53Q26.68 10.57 26.60 10.57L26.60 10.57L26.60 10.57Q26.24 10.57 26.15 10.44L26.15 10.44L26.15 10.44Q26.05 10.32 26.05 10.22L26.05 10.22L26.05 10.22Q26.05 10.07 26.12 9.99L26.12 9.99L26.12 9.99Q26.18 9.91 26.24 9.88L26.24 9.88L26.25 9.87L26.46 9.76L26.49 9.76L26.49 9.76Q26.50 9.74 26.54 9.68L26.54 9.68L26.54 9.68Q26.59 9.62 26.66 9.46L26.66 9.46L26.66 9.46Q26.74 9.31 26.84 9.05L26.84 9.05L26.84 9.05Q26.94 8.79 27.08 8.39L27.08 8.39L27.08 8.39Q27.43 7.32 27.71 6.17L27.71 6.17L27.71 6.17Q27.71 6.15 27.71 6.13L27.71 6.13L27.71 6.13Q27.72 6.12 27.72 6.09L27.72 6.09L27.72 6.09Q27.78 5.73 27.80 5.60L27.80 5.60L27.80 5.60Q27.82 5.47 27.85 5.42L27.85 5.42L27.85 5.42Q27.87 5.35 27.97 5.25L27.97 5.25L27.97 5.25Q28.07 5.15 28.28 5.15L28.28 5.15L28.28 5.15Q28.49 5.15 28.62 5.28L28.62 5.28L28.62 5.28Q28.64 5.32 28.68 5.40L28.68 5.40L28.68 5.40Q28.71 5.47 28.71 5.59L28.71 5.59L28.71 5.59Q28.60 6.37 28.55 7.11L28.55 7.11L28.55 7.11Q28.42 8.27 28.42 8.92L28.42 8.92L28.42 8.92Q28.42 9.51 28.50 9.71L28.50 9.71L28.50 9.71Q28.57 9.91 28.60 9.93L28.60 9.93L28.60 9.93Q28.63 9.90 28.71 9.80L28.71 9.80L28.71 9.80Q28.78 9.70 28.91 9.39L28.91 9.39L28.91 9.39Q29.02 9.11 29.14 8.73L29.14 8.73L29.14 8.73Q29.26 8.34 29.39 7.84L29.39 7.84L29.39 7.84Q29.44 7.39 29.53 6.72L29.53 6.72L29.53 6.72Q29.61 6.05 29.74 5.12L29.74 5.12L29.74 5.12Q29.81 4.61 30.32 4.56L30.32 4.56L30.32 4.56Q30.34 4.55 30.39 4.55L30.39 4.55L30.39 4.55Q30.58 4.55 30.67 4.66L30.67 4.66L30.67 4.66Q30.77 4.77 30.77 4.96L30.77 4.96L30.77 4.96Q30.77 5.15 30.70 5.52L30.70 5.52L30.70 5.52Q30.62 5.89 30.45 6.48L30.45 6.48L30.45 6.48Q30.42 6.57 30.40 6.75L30.40 6.75L30.40 6.75Q30.38 6.94 30.37 7.29L30.37 7.29L30.37 7.29Q30.35 7.64 30.35 8.17L30.35 8.17L30.35 8.17Q30.34 8.69 30.34 9.46L30.34 9.46L30.34 9.46Q30.35 9.79 30.36 10.12L30.36 10.12L30.36 10.12Q30.37 10.46 30.39 10.81L30.39 10.81L30.39 10.81Q30.39 10.96 30.40 11.07L30.40 11.07L30.40 11.07Q30.41 11.17 30.41 11.24L30.41 11.24L30.41 11.24Q30.48 11.21 30.56 11.19L30.56 11.19L30.56 11.19Q30.65 11.17 30.76 11.14L30.76 11.14L30.76 11.14Q31.19 11.02 31.47 11.02L31.47 11.02L31.47 11.02Q31.84 11.02 32.06 11.13ZM29.68 13.05L29.68 12.24L29.68 12.24Q29.55 12.28 29.43 12.33L29.43 12.33L29.43 12.33Q29.30 12.38 29.19 12.43L29.19 12.43L29.18 12.43L29.18 12.43Q28.35 12.80 27.82 13.36L27.82 13.36L27.82 13.36Q27.10 14.06 27.10 14.81L27.10 14.81L27.10 14.81Q27.10 15.25 27.38 15.57L27.38 15.57L27.38 15.57Q27.65 15.88 28.00 15.88L28.00 15.88L28.00 15.88Q28.70 15.88 29.16 15.11L29.16 15.11L29.16 15.11Q29.68 14.28 29.68 13.05L29.68 13.05ZM41.72-0.35L41.72-0.35L41.72-0.35Q41.82-0.11 41.87 0.12L41.87 0.12L41.87 0.12Q41.93 0.35 41.94 0.66L41.94 0.66L41.94 0.66Q41.94 0.97 41.92 1.39L41.92 1.39L41.92 1.39Q41.89 1.82 41.80 2.45L41.80 2.45L41.76 2.84L41.76 2.84Q41.71 3.29 41.66 3.79L41.66 3.79L41.66 3.79Q41.61 4.28 41.55 4.83L41.55 4.83L41.55 4.83Q41.41 6.31 41.34 7.56L41.34 7.56L41.34 7.56Q41.27 8.81 41.27 9.79L41.27 9.79L41.27 9.79Q41.27 9.84 41.31 10.02L41.31 10.02L41.31 10.02Q41.36 10.23 41.36 10.33L41.36 10.33L41.36 10.33Q41.36 10.64 41.08 10.79L41.08 10.79L41.08 10.79Q40.84 10.92 40.43 10.92L40.43 10.92L40.43 10.92Q40.07 10.92 39.73 10.74L39.73 10.74L39.73 10.74Q39.44 10.56 39.23 10.19L39.23 10.19L39.23 10.19Q39.21 10.16 39.18 10.09L39.18 10.09L39.18 10.09Q39.14 10.01 39.08 9.85L39.08 9.85L39.08 9.85Q39.02 9.69 38.92 9.41L38.92 9.41L38.92 9.41Q38.82 9.13 38.68 8.69L38.68 8.69L38.68 8.69Q38.47 8.06 38.27 7.30L38.27 7.30L38.27 7.30Q38.07 6.54 37.87 5.64L37.87 5.64L37.87 5.64Q37.72 4.97 37.58 4.21L37.58 4.21L37.58 4.21Q37.44 3.46 37.30 2.62L37.30 2.62L37.30 2.62Q37.20 3.16 37.01 3.83L37.01 3.83L37.01 3.83Q36.82 4.49 36.69 5.45L36.69 5.45L36.69 5.45Q36.60 6.10 36.55 6.55L36.55 6.55L36.55 6.55Q36.51 7 36.50 7.33L36.50 7.33L36.50 7.33Q36.48 7.66 36.49 7.92L36.49 7.92L36.49 7.92Q36.50 8.19 36.51 8.50L36.51 8.50L36.51 8.50Q36.53 8.89 36.62 9.28L36.62 9.28L36.62 9.28Q36.71 9.67 36.78 10.02L36.78 10.02L36.78 10.02Q36.85 10.36 36.86 10.61L36.86 10.61L36.86 10.61Q36.86 10.86 36.72 10.98L36.72 10.98L36.72 10.98Q36.57 11.10 36.30 11.05L36.30 11.05L36.30 11.05Q36.02 10.99 35.83 10.58L35.83 10.58L35.83 10.58Q35.73 10.39 35.66 10.12L35.66 10.12L35.66 10.12Q35.60 9.84 35.56 9.58L35.56 9.58L35.56 9.58Q35.52 9.31 35.50 9.07L35.50 9.07L35.50 9.07Q35.48 8.83 35.48 8.69L35.48 8.69L35.48 8.69Q35.48 8.20 35.55 7.10L35.55 7.10L35.55 7.10Q35.62 5.99 35.84 4.51L35.84 4.51L35.84 4.51Q35.97 3.71 36.06 3.16L36.06 3.16L36.06 3.16Q36.16 2.62 36.23 2.22L36.23 2.22L36.23 2.22Q36.30 1.82 36.34 1.50L36.34 1.50L36.34 1.50Q36.37 1.19 36.37 0.85L36.37 0.85L36.37 0.59L36.37 0.59Q36.37 0.55 36.40 0.49L36.40 0.49L36.40 0.49Q36.47 0.36 36.56 0.28L36.56 0.28L36.56 0.28Q36.65 0.20 36.75 0.13L36.75 0.13L36.75 0.13Q36.95-0.01 37.20-0.01L37.20-0.01L37.20-0.01Q37.67-0.01 37.94 0.17L37.94 0.17L37.94 0.17Q38.23 0.39 38.23 0.77L38.23 0.77L38.23 0.77Q38.23 1.75 38.31 2.55L38.31 2.55L38.31 2.55Q38.39 3.35 38.53 4.07L38.53 4.07L38.53 4.07Q38.67 4.79 38.84 5.48L38.84 5.48L38.84 5.48Q39.02 6.17 39.19 6.94L39.19 6.94L39.19 6.94Q39.51 8.36 39.82 9.03L39.82 9.03L39.82 9.03Q39.98 9.42 40.10 9.52L40.10 9.52L40.10 9.52Q40.22 9.62 40.26 9.63L40.26 9.63L40.26 9.63Q40.29 9.60 40.33 9.47L40.33 9.47L40.33 9.47Q40.38 9.34 40.39 8.93L40.39 8.93L40.39 8.93Q40.42 8.19 40.44 7.76L40.44 7.76L40.44 7.76Q40.46 7.32 40.47 7.10L40.47 7.10L40.47 7.10Q40.47 6.87 40.48 6.80L40.48 6.80L40.48 6.80Q40.49 6.73 40.49 6.72L40.49 6.72L40.82 3.00L40.84 2.84L40.85 2.84L40.85 2.84Q40.92 2.11 40.99 1.59L40.99 1.59L40.99 1.59Q41.06 1.06 41.06 0.66L41.06 0.66L41.06 0.66Q41.06 0.43 40.99 0.22L40.99 0.22L40.99 0.22Q40.99 0.22 40.98 0.21L40.98 0.21L40.98 0.21Q40.94 0 40.98-0.15L40.98-0.15L40.98-0.15Q41.02-0.34 41.20-0.43L41.20-0.43L41.20-0.43Q41.34-0.48 41.57-0.48L41.57-0.48L41.58-0.46L41.58-0.46Q41.68-0.43 41.72-0.35ZM44.48 10.89L44.48 10.89L44.48 10.89Q44.91 11.14 44.91 11.49L44.91 11.49L44.91 11.49Q44.91 11.70 44.76 11.87L44.76 11.87L44.69 11.96L44.59 11.96L44.59 11.96Q44.44 11.96 44.35 11.86L44.35 11.86L44.35 11.86Q44.27 11.76 44.24 11.70L44.24 11.70L44.24 11.70Q44.14 11.58 44.06 11.55L44.06 11.55L44.04 11.54L44.04 11.54Q43.85 11.42 43.44 11.42L43.44 11.42L43.44 11.42Q43.25 11.42 43.06 11.47L43.06 11.47L43.06 11.47Q43.04 11.47 43.02 11.47L43.02 11.47L43.02 11.47Q42.99 11.48 42.97 11.48L42.97 11.48L43.06 13.71L43.06 13.71Q43.08 14.63 42.45 15.33L42.45 15.33L42.45 15.33Q41.82 16.04 40.89 16.04L40.89 16.04L40.89 16.04Q39.80 16.04 38.98 15.40L38.98 15.40L38.98 15.40Q38.09 14.73 38.09 13.86L38.09 13.86L38.09 13.86Q38.09 13.43 38.37 13.03L38.37 13.03L38.39 13.02L38.81 12.52L38.81 12.52Q39.65 11.44 42.08 10.84L42.08 10.84L42.08 10.84Q42.06 10.47 42.04 10.25L42.04 10.25L42.04 10.25Q42.03 10.02 42.02 9.90L42.02 9.90L42.02 9.90Q42.01 9.77 42.01 9.72L42.01 9.72L42.01 9.72Q42.01 9.67 42.01 9.66L42.01 9.66L42.01 9.66Q42.01 9.31 42.04 8.75L42.04 8.75L42.04 8.75Q42.07 8.19 42.13 7.42L42.13 7.42L42.13 7.42Q42.20 6.86 42.18 6.54L42.18 6.54L42.18 6.54Q42.15 6.23 42.15 6.13L42.15 6.13L42.15 6.13Q42.15 6.09 42.13 6.00L42.13 6.00L42.13 6.00Q42.11 5.91 42.11 5.81L42.11 5.81L42.11 5.81Q42.11 5.71 42.14 5.62L42.14 5.62L42.14 5.62Q42.17 5.53 42.28 5.49L42.28 5.49L42.28 5.49Q42.56 5.36 42.70 5.37L42.70 5.37L42.70 5.37Q42.84 5.38 42.90 5.38L42.90 5.38L42.90 5.38Q43.08 5.38 43.18 5.42L43.18 5.42L43.18 5.42Q43.29 5.47 43.34 5.54L43.34 5.54L43.34 5.54Q43.39 5.61 43.40 5.68L43.40 5.68L43.40 5.68Q43.41 5.74 43.41 5.78L43.41 5.78L43.41 5.82L43.40 5.87L43.40 5.87Q43.19 6.31 43.02 7.67L43.02 7.67L43.02 7.67Q42.95 8.32 42.92 8.93L42.92 8.93L42.92 8.93Q42.88 9.53 42.88 10.12L42.88 10.12L42.88 10.12Q42.88 10.29 42.88 10.44L42.88 10.44L42.88 10.44Q42.88 10.60 42.90 10.75L42.90 10.75L42.90 10.75Q42.95 10.74 43.01 10.74L43.01 10.74L43.01 10.74Q43.06 10.74 43.13 10.72L43.13 10.72L43.13 10.72Q43.47 10.68 43.68 10.68L43.68 10.68L43.68 10.68Q44.10 10.68 44.48 10.89ZM41.76 14.85L41.76 14.85L41.76 14.85Q42.14 14.45 42.13 13.83L42.13 13.83L42.10 11.65L42.10 11.65Q41.51 11.80 40.88 12.11L40.88 12.11L40.88 12.11Q38.92 13.12 38.92 13.96L38.92 13.96L38.92 13.96Q38.92 14.43 39.45 14.83L39.45 14.83L39.45 14.83Q40.01 15.25 40.74 15.25L40.74 15.25L40.74 15.25Q41.38 15.25 41.76 14.85ZM43.12 3.39L43.12 3.39L43.12 3.39Q43.44 3.54 43.53 3.89L43.53 3.89L43.53 3.89Q43.61 4.23 43.48 4.48L43.48 4.48L43.48 4.48Q43.40 4.70 43.09 4.80L43.09 4.80L43.09 4.80Q42.78 4.91 42.59 4.82L42.59 4.82L42.59 4.82Q41.96 4.51 42.28 3.84L42.28 3.84L42.28 3.84Q42.39 3.61 42.51 3.50L42.51 3.50L42.51 3.50Q42.63 3.39 42.75 3.35L42.75 3.35L42.75 3.35Q42.87 3.32 42.97 3.34L42.97 3.34L42.97 3.34Q43.06 3.36 43.12 3.39ZM48.76 5.53L48.76 5.53L48.76 5.53Q48.87 5.53 48.98 5.61L48.98 5.61L48.98 5.61Q49.08 5.70 49.08 5.91L49.08 5.91L49.08 5.91Q49.08 6.41 48.57 8.06L48.57 8.06L48.57 8.06Q48.20 9.16 47.86 9.68L47.86 9.68L47.86 9.68Q47.52 10.21 47.12 10.21L47.12 10.21L47.12 10.21Q46.76 10.21 46.54 9.87L46.54 9.87L46.54 9.87Q46.48 9.79 46.41 9.64L46.41 9.64L46.41 9.64Q46.34 9.49 46.27 9.30L46.27 9.30L46.27 9.30Q46.13 9.63 46.08 9.76L46.08 9.76L46.08 9.76Q46.03 9.88 46.00 9.93L46.00 9.93L46.00 9.94L46.00 9.94Q45.64 10.51 45.12 10.51L45.12 10.51L45.12 10.51Q44.97 10.51 44.77 10.42L44.77 10.42L44.77 10.42Q44.56 10.33 44.38 10.04L44.38 10.04L44.38 10.04Q44.13 9.60 44.13 9.04L44.13 9.04L44.13 9.04Q44.13 8.57 44.15 8.03L44.15 8.03L44.15 8.03Q44.17 7.49 44.20 6.86L44.20 6.86L44.20 6.86Q44.23 6.37 44.25 6.09L44.25 6.09L44.25 6.09Q44.28 5.81 44.30 5.67L44.30 5.67L44.30 5.67Q44.32 5.53 44.34 5.48L44.34 5.48L44.34 5.48Q44.35 5.43 44.37 5.40L44.37 5.40L44.37 5.40Q44.41 5.33 44.51 5.26L44.51 5.26L44.51 5.26Q44.60 5.18 44.80 5.18L44.80 5.18L44.80 5.18Q44.88 5.18 45.00 5.22L45.00 5.22L45.00 5.22Q45.11 5.26 45.22 5.39L45.22 5.39L45.22 5.39Q45.40 5.57 45.40 5.78L45.40 5.78L45.40 5.78Q45.40 5.92 45.33 6.17L45.33 6.17L45.33 6.17Q45.29 6.33 45.27 6.41L45.27 6.41L45.27 6.41Q45.25 6.48 45.25 6.51L45.25 6.51L45.25 6.51Q45.04 7.67 45.04 9.27L45.04 9.27L45.04 9.27Q45.04 9.55 45.07 9.63L45.07 9.63L45.07 9.63Q45.11 9.72 45.12 9.73L45.12 9.73L45.12 9.73Q45.19 9.73 45.24 9.66L45.24 9.66L45.24 9.66Q45.29 9.59 45.33 9.52L45.33 9.52L45.33 9.52Q45.40 9.37 45.47 9.21L45.47 9.21L45.47 9.21Q45.54 9.04 45.61 8.89L45.61 8.89L45.61 8.88L45.61 8.88Q45.93 8.19 46.09 7L46.09 7L46.09 7Q46.10 6.93 46.12 6.75L46.12 6.75L46.12 6.75Q46.14 6.58 46.20 6.30L46.20 6.30L46.20 6.29L46.20 6.29Q46.27 5.89 46.27 5.73L46.27 5.73L46.27 5.33L46.27 5.33Q46.23 5.04 46.33 4.83L46.33 4.83L46.33 4.83Q46.44 4.59 46.70 4.59L46.70 4.59L46.79 4.59L46.79 4.59Q47.19 4.61 47.29 4.77L47.29 4.77L47.29 4.77Q47.39 4.93 47.39 5.04L47.39 5.04L47.39 5.04Q47.39 5.18 47.28 5.36L47.28 5.36L47.28 5.36Q47.24 5.45 47.21 5.60L47.21 5.60L47.21 5.60Q47.21 5.61 47.20 5.66L47.20 5.66L47.20 5.66Q47.19 5.70 47.18 5.82L47.18 5.82L47.18 5.82Q47.17 5.94 47.14 6.16L47.14 6.16L47.14 6.16Q47.11 6.38 47.05 6.75L47.05 6.75L47.05 6.75Q47.00 7.15 46.97 7.50L46.97 7.50L46.97 7.50Q46.94 7.84 46.94 8.11L46.94 8.11L46.94 8.11Q46.94 8.44 46.96 8.70L46.96 8.70L46.96 8.70Q46.98 8.96 47.04 9.11L47.04 9.11L47.04 9.11Q47.11 9.32 47.17 9.34L47.17 9.34L47.17 9.34Q47.18 9.34 47.22 9.30L47.22 9.30L47.22 9.30Q47.26 9.25 47.35 9.11L47.35 9.11L47.35 9.11Q47.43 8.97 47.54 8.72L47.54 8.72L47.54 8.72Q47.66 8.47 47.80 8.02L47.80 8.02L47.80 8.02Q47.95 7.46 48.10 6.94L48.10 6.94L48.10 6.94Q48.24 6.41 48.40 5.89L48.40 5.89L48.40 5.89Q48.52 5.53 48.76 5.53ZM52.02 10.70L52.02 10.70L52.02 10.70Q52.30 10.70 52.47 10.76L52.47 10.76L52.47 10.76Q52.64 10.82 52.73 10.91L52.73 10.91L52.73 10.91Q52.82 11.00 52.85 11.10L52.85 11.10L52.85 11.10Q52.88 11.20 52.88 11.28L52.88 11.28L52.88 11.28Q52.88 11.33 52.86 11.40L52.86 11.40L52.86 11.40Q52.85 11.48 52.80 11.56L52.80 11.56L52.80 11.56Q52.75 11.63 52.65 11.69L52.65 11.69L52.65 11.69Q52.54 11.75 52.36 11.75L52.36 11.75L52.36 11.75Q52.11 11.75 51.77 11.58L51.77 11.58L51.77 11.58Q51.30 11.58 51.07 11.59L51.07 11.59L51.07 11.59Q50.83 11.61 50.74 11.62L50.74 11.62L50.74 12.68L50.74 12.68Q50.74 14.34 50.34 15.12L50.34 15.12L50.34 15.12Q49.83 16.14 48.51 16.14L48.51 16.14L48.51 16.14Q47.45 16.14 46.66 15.40L46.66 15.40L46.66 15.40Q45.86 14.64 45.86 13.66L45.86 13.66L45.86 13.66Q45.86 12.91 46.59 12.31L46.59 12.31L46.59 12.31Q47.29 11.73 48.66 11.27L48.66 11.27L48.68 11.26L48.68 11.26Q48.92 11.20 49.20 11.13L49.20 11.13L49.20 11.13Q49.49 11.06 49.83 10.95L49.83 10.95L49.83 10.95Q49.80 10.75 49.78 10.39L49.78 10.39L49.78 10.39Q49.77 10.30 49.76 10.22L49.76 10.22L49.76 10.22Q49.76 10.14 49.76 10.07L49.76 10.07L49.76 10.07Q49.43 10.65 49.03 10.65L49.03 10.65L49.03 10.65Q48.48 10.65 48.13 10.11L48.13 10.11L48.13 10.11Q47.82 9.62 47.82 8.83L47.82 8.83L47.82 8.83Q47.82 8.30 47.94 7.67L47.94 7.67L47.94 7.67Q48.06 7.03 48.30 6.19L48.30 6.19L48.30 6.19Q48.41 5.74 48.53 5.43L48.53 5.43L48.53 5.43Q48.65 5.12 48.76 4.89L48.76 4.89L48.76 4.89Q48.86 4.70 49.01 4.51L49.01 4.51L49.01 4.51Q49.15 4.33 49.36 4.33L49.36 4.33L49.36 4.33Q49.52 4.33 49.70 4.40L49.70 4.40L49.70 4.40Q49.88 4.48 50.04 4.61L50.04 4.61L50.04 4.61Q50.20 4.75 50.32 4.93L50.32 4.93L50.32 4.93Q50.44 5.11 50.47 5.31L50.47 5.31L50.47 5.31Q50.54 5.75 50.48 5.94L50.48 5.94L50.48 5.94Q50.43 6.12 50.37 6.20L50.37 6.20L50.37 6.20Q50.34 6.23 50.30 6.27L50.30 6.27L50.30 6.27Q50.25 6.31 50.18 6.33L50.18 6.33L50.18 6.33Q50.12 6.36 50.07 6.33L50.07 6.33L50.07 6.33Q50.02 6.31 50.01 6.22L50.01 6.22L50.01 6.22Q49.97 5.88 49.87 5.63L49.87 5.63L49.87 5.63Q49.77 5.39 49.59 5.36L49.59 5.36L49.59 5.36Q49.55 5.43 49.45 5.70L49.45 5.70L49.45 5.70Q49.35 5.96 49.17 6.61L49.17 6.61L49.17 6.61Q48.96 7.38 48.85 7.97L48.85 7.97L48.85 7.97Q48.75 8.57 48.75 9.10L48.75 9.10L48.75 9.10Q48.75 9.53 48.80 9.70L48.80 9.70L48.80 9.70Q48.86 9.87 48.92 9.87L48.92 9.87L48.92 9.87Q48.92 9.87 48.97 9.85L48.97 9.85L48.97 9.85Q49.01 9.83 49.11 9.69L49.11 9.69L49.11 9.69Q49.21 9.55 49.34 9.26L49.34 9.26L49.34 9.26Q49.48 8.97 49.64 8.44L49.64 8.44L49.64 8.44Q49.73 8.18 49.80 7.96L49.80 7.96L49.80 7.96Q49.87 7.74 49.92 7.55L49.92 7.55L49.92 7.55Q49.97 7.36 50.00 7.18L50.00 7.18L50.00 7.18Q50.04 7 50.06 6.80L50.06 6.80L50.06 6.80Q50.08 6.69 50.06 6.65L50.06 6.65L50.06 6.65Q50.04 6.61 50.08 6.55L50.08 6.55L50.08 6.55Q50.12 6.50 50.17 6.50L50.17 6.50L50.17 6.50Q50.22 6.50 50.25 6.50L50.25 6.50L50.25 6.50Q50.27 6.50 50.32 6.50L50.32 6.50L50.32 6.50Q50.36 6.51 50.39 6.51L50.39 6.51L50.39 6.51Q50.44 6.51 50.48 6.54L50.48 6.54L50.48 6.54Q50.53 6.58 50.58 6.59L50.58 6.59L50.58 6.59Q50.64 6.61 50.67 6.63L50.67 6.63L50.67 6.63Q50.71 6.65 50.75 6.68L50.75 6.68L50.75 6.68Q50.81 6.69 50.86 6.72L50.86 6.72L50.86 6.72Q50.90 6.75 50.94 6.79L50.94 6.79L50.94 6.79Q50.97 6.83 50.95 6.89L50.95 6.89L50.95 6.89Q50.82 7.31 50.74 7.81L50.74 7.81L50.74 7.81Q50.65 8.26 50.62 8.62L50.62 8.62L50.62 8.62Q50.58 8.97 50.58 9.34L50.58 9.34L50.58 9.34Q50.58 9.63 50.67 10.78L50.67 10.78L50.67 10.78Q51.60 10.70 52.02 10.70ZM48.37 15.27L48.37 15.27L48.37 15.27Q49.95 15.27 49.95 12.78L49.95 12.78L49.95 12.78Q49.95 12.75 49.94 12.56L49.94 12.56L49.94 12.56Q49.92 12.36 49.90 11.75L49.90 11.75L49.90 11.75Q49.15 11.77 48.72 11.94L48.72 11.94L48.72 11.94Q47.96 12.25 47.38 12.73L47.38 12.73L47.38 12.73Q46.72 13.27 46.72 13.79L46.72 13.79L46.72 13.79Q46.72 14.38 47.22 14.81L47.22 14.81L47.22 14.81Q47.74 15.27 48.37 15.27ZM56.18 5.53L56.18 5.53L56.18 5.53Q56.29 5.53 56.40 5.61L56.40 5.61L56.40 5.61Q56.50 5.70 56.50 5.91L56.50 5.91L56.50 5.91Q56.50 6.41 55.99 8.06L55.99 8.06L55.99 8.06Q55.62 9.16 55.28 9.68L55.28 9.68L55.28 9.68Q54.94 10.21 54.54 10.21L54.54 10.21L54.54 10.21Q54.18 10.21 53.96 9.87L53.96 9.87L53.96 9.87Q53.90 9.79 53.83 9.64L53.83 9.64L53.83 9.64Q53.76 9.49 53.69 9.30L53.69 9.30L53.69 9.30Q53.55 9.63 53.50 9.76L53.50 9.76L53.50 9.76Q53.45 9.88 53.42 9.93L53.42 9.93L53.42 9.94L53.42 9.94Q53.06 10.51 52.54 10.51L52.54 10.51L52.54 10.51Q52.39 10.51 52.19 10.42L52.19 10.42L52.19 10.42Q51.98 10.33 51.80 10.04L51.80 10.04L51.80 10.04Q51.55 9.60 51.55 9.04L51.55 9.04L51.55 9.04Q51.55 8.57 51.57 8.03L51.57 8.03L51.57 8.03Q51.59 7.49 51.62 6.86L51.62 6.86L51.62 6.86Q51.65 6.37 51.67 6.09L51.67 6.09L51.67 6.09Q51.70 5.81 51.72 5.67L51.72 5.67L51.72 5.67Q51.74 5.53 51.76 5.48L51.76 5.48L51.76 5.48Q51.77 5.43 51.79 5.40L51.79 5.40L51.79 5.40Q51.83 5.33 51.93 5.26L51.93 5.26L51.93 5.26Q52.02 5.18 52.22 5.18L52.22 5.18L52.22 5.18Q52.30 5.18 52.42 5.22L52.42 5.22L52.42 5.22Q52.53 5.26 52.64 5.39L52.64 5.39L52.64 5.39Q52.82 5.57 52.82 5.78L52.82 5.78L52.82 5.78Q52.82 5.92 52.75 6.17L52.75 6.17L52.75 6.17Q52.71 6.33 52.69 6.41L52.69 6.41L52.69 6.41Q52.67 6.48 52.67 6.51L52.67 6.51L52.67 6.51Q52.46 7.67 52.46 9.27L52.46 9.27L52.46 9.27Q52.46 9.55 52.49 9.63L52.49 9.63L52.49 9.63Q52.53 9.72 52.54 9.73L52.54 9.73L52.54 9.73Q52.61 9.73 52.66 9.66L52.66 9.66L52.66 9.66Q52.71 9.59 52.75 9.52L52.75 9.52L52.75 9.52Q52.82 9.37 52.89 9.21L52.89 9.21L52.89 9.21Q52.96 9.04 53.03 8.89L53.03 8.89L53.03 8.88L53.03 8.88Q53.35 8.19 53.51 7L53.51 7L53.51 7Q53.52 6.93 53.54 6.75L53.54 6.75L53.54 6.75Q53.56 6.58 53.62 6.30L53.62 6.30L53.62 6.29L53.62 6.29Q53.69 5.89 53.69 5.73L53.69 5.73L53.69 5.33L53.69 5.33Q53.65 5.04 53.75 4.83L53.75 4.83L53.75 4.83Q53.86 4.59 54.12 4.59L54.12 4.59L54.21 4.59L54.21 4.59Q54.61 4.61 54.71 4.77L54.71 4.77L54.71 4.77Q54.81 4.93 54.81 5.04L54.81 5.04L54.81 5.04Q54.81 5.18 54.70 5.36L54.70 5.36L54.70 5.36Q54.66 5.45 54.63 5.60L54.63 5.60L54.63 5.60Q54.63 5.61 54.62 5.66L54.62 5.66L54.62 5.66Q54.61 5.70 54.60 5.82L54.60 5.82L54.60 5.82Q54.59 5.94 54.56 6.16L54.56 6.16L54.56 6.16Q54.53 6.38 54.47 6.75L54.47 6.75L54.47 6.75Q54.42 7.15 54.39 7.50L54.39 7.50L54.39 7.50Q54.36 7.84 54.36 8.11L54.36 8.11L54.36 8.11Q54.36 8.44 54.38 8.70L54.38 8.70L54.38 8.70Q54.40 8.96 54.46 9.11L54.46 9.11L54.46 9.11Q54.53 9.32 54.59 9.34L54.59 9.34L54.59 9.34Q54.60 9.34 54.64 9.30L54.64 9.30L54.64 9.30Q54.68 9.25 54.77 9.11L54.77 9.11L54.77 9.11Q54.85 8.97 54.96 8.72L54.96 8.72L54.96 8.72Q55.08 8.47 55.22 8.02L55.22 8.02L55.22 8.02Q55.37 7.46 55.52 6.94L55.52 6.94L55.52 6.94Q55.66 6.41 55.82 5.89L55.82 5.89L55.82 5.89Q55.94 5.53 56.18 5.53ZM60.34 5.60L60.34 5.60L60.34 5.60Q60.40 5.60 60.53 5.66L60.53 5.66L60.53 5.66Q60.66 5.73 60.66 6.02L60.66 6.02L60.66 6.02Q60.66 6.48 60.12 8.12L60.12 8.12L60.12 8.12Q59.77 9.20 59.46 9.80L59.46 9.80L59.46 9.80Q59.12 10.44 58.77 10.44L58.77 10.44L58.77 10.44Q58.03 10.44 57.82 9.21L57.82 9.21L57.82 9.21Q57.78 9.02 57.74 8.68L57.74 8.68L57.74 8.68Q57.71 8.34 57.68 7.85L57.68 7.85L57.68 7.85Q57.60 8.20 57.48 8.63L57.48 8.63L57.48 8.63Q57.37 9.06 57.23 9.58L57.23 9.58L57.23 9.58Q57.20 9.65 57.16 9.78L57.16 9.78L57.16 9.78Q57.12 9.91 57.05 10.04L57.05 10.04L57.05 10.04Q56.98 10.18 56.86 10.28L56.86 10.28L56.86 10.28Q56.74 10.37 56.57 10.37L56.57 10.37L56.57 10.37Q56.49 10.37 56.37 10.35L56.37 10.35L56.37 10.35Q56.25 10.32 56.14 10.23L56.14 10.23L56.14 10.23Q56.03 10.15 55.94 10.00L55.94 10.00L55.94 10.00Q55.85 9.84 55.80 9.58L55.80 9.58L55.80 9.56L55.80 9.56Q55.79 9.28 55.78 8.99L55.78 8.99L55.78 8.99Q55.76 8.71 55.75 8.43L55.75 8.43L55.75 8.43Q55.71 7.81 55.75 7.21L55.75 7.21L55.75 7.21Q55.76 6.99 55.77 6.87L55.77 6.87L55.77 6.87Q55.78 6.76 55.79 6.71L55.79 6.71L55.68 6.47L55.68 6.47Q55.65 6.41 55.65 6.37L55.65 6.37L55.65 6.37Q55.68 6.06 55.70 5.94L55.70 5.94L55.70 5.94Q55.72 5.82 55.75 5.77L55.75 5.77L55.75 5.77Q55.87 5.40 56.31 5.40L56.31 5.40L56.31 5.40Q56.55 5.40 56.67 5.53L56.67 5.53L56.67 5.53Q56.80 5.66 56.80 5.87L56.80 5.87L56.80 5.87Q56.80 5.89 56.78 5.96L56.78 5.96L56.78 5.96Q56.77 6.02 56.70 6.27L56.70 6.27L56.70 6.27Q56.66 6.41 56.63 6.52L56.63 6.52L56.63 6.52Q56.60 6.64 56.60 6.75L56.60 6.75L56.60 6.75Q56.60 6.90 56.60 7.13L56.60 7.13L56.60 7.13Q56.60 7.35 56.59 7.63L56.59 7.63L56.59 7.63Q56.59 7.91 56.58 8.09L56.58 8.09L56.58 8.09Q56.57 8.27 56.57 8.36L56.57 8.36L56.57 8.36Q56.57 8.83 56.62 9.02L56.62 9.02L56.62 9.00L56.62 9.00Q56.73 8.60 56.80 8.32L56.80 8.32L56.80 8.32Q56.87 8.04 56.94 7.85L56.94 7.85L56.94 7.85Q57.36 6.55 57.44 5.57L57.44 5.57L57.44 5.57Q57.48 4.83 57.74 4.68L57.74 4.68L57.74 4.68Q57.79 4.63 57.86 4.63L57.86 4.63L57.86 4.63Q58.45 4.68 58.63 4.89L58.63 4.89L58.63 4.89Q58.81 5.11 58.81 5.32L58.81 5.32L58.81 5.36L58.81 5.36Q58.80 5.39 58.77 5.59L58.77 5.59L58.77 5.59Q58.74 5.78 58.65 6.36L58.65 6.36L58.65 6.36Q58.58 6.86 58.53 7.29L58.53 7.29L58.53 7.29Q58.49 7.71 58.49 8.08L58.49 8.08L58.49 8.08Q58.49 8.54 58.52 8.82L58.52 8.82L58.52 8.82Q58.55 9.10 58.59 9.25L58.59 9.25L58.59 9.25Q58.63 9.39 58.67 9.44L58.67 9.44L58.67 9.44Q58.70 9.49 58.72 9.49L58.72 9.49L58.72 9.49Q58.73 9.48 58.78 9.43L58.78 9.43L58.78 9.43Q58.83 9.38 58.91 9.23L58.91 9.23L58.91 9.23Q59.00 9.07 59.12 8.79L59.12 8.79L59.12 8.79Q59.25 8.51 59.40 8.05L59.40 8.05L59.40 8.05Q59.56 7.56 59.68 7.10L59.68 7.10L59.68 7.10Q59.81 6.64 59.91 6.22L59.91 6.22L59.91 6.22Q59.96 5.98 60.05 5.79L60.05 5.79L60.05 5.79Q60.14 5.60 60.34 5.60ZM64.22 5.49L64.22 5.49L64.22 5.49Q64.29 5.50 64.28 5.56L64.28 5.56L64.28 5.56Q64.27 5.63 64.27 5.92L64.27 5.92L64.27 5.92Q64.27 6.20 64.16 6.78L64.16 6.78L64.16 6.78Q64.05 7.35 63.77 8.25L63.77 8.25L63.77 8.25Q63.62 8.74 63.43 9.11L63.43 9.11L63.43 9.11Q63.25 9.49 63.11 9.74L63.11 9.74L63.11 9.74Q63.00 9.94 62.84 10.14L62.84 10.14L62.84 10.14Q62.68 10.33 62.44 10.33L62.44 10.33L62.44 10.33Q61.99 10.33 61.74 9.97L61.74 9.97L61.74 9.97Q61.70 9.90 61.65 9.82L61.65 9.82L61.65 9.82Q61.60 9.74 61.54 9.63L61.54 9.63L61.54 9.63Q61.18 10.64 60.52 10.64L60.52 10.64L60.52 10.64Q60.20 10.64 59.93 10.40L59.93 10.40L59.93 10.40Q59.43 9.88 59.47 8.23L59.47 8.23L59.47 8.23Q59.49 7.97 59.54 7.61L59.54 7.61L59.54 7.61Q59.60 7.25 59.68 6.85L59.68 6.85L59.68 6.85Q59.74 6.62 59.82 6.36L59.82 6.36L59.82 6.36Q59.89 6.09 59.98 5.82L59.98 5.82L59.98 5.82Q60.07 5.56 60.16 5.33L60.16 5.33L60.16 5.33Q60.24 5.11 60.31 4.97L60.31 4.97L60.31 4.97Q60.41 4.79 60.56 4.60L60.56 4.60L60.56 4.60Q60.70 4.41 60.91 4.41L60.91 4.41L60.91 4.41Q61.07 4.41 61.25 4.49L61.25 4.49L61.25 4.49Q61.43 4.56 61.59 4.70L61.59 4.70L61.59 4.70Q61.75 4.83 61.87 5.01L61.87 5.01L61.87 5.01Q61.99 5.19 62.02 5.39L62.02 5.39L62.02 5.39Q62.09 5.84 62.03 6.02L62.03 6.02L62.03 6.02Q61.98 6.20 61.92 6.29L61.92 6.29L61.92 6.29Q61.89 6.31 61.85 6.36L61.85 6.36L61.85 6.36Q61.80 6.40 61.73 6.42L61.73 6.42L61.73 6.42Q61.67 6.44 61.62 6.42L61.62 6.42L61.62 6.42Q61.57 6.40 61.56 6.30L61.56 6.30L61.56 6.30Q61.52 5.96 61.42 5.72L61.42 5.72L61.42 5.72Q61.32 5.47 61.14 5.45L61.14 5.45L61.14 5.45Q61.10 5.52 61.00 5.78L61.00 5.78L61.00 5.78Q60.90 6.05 60.72 6.69L60.72 6.69L60.72 6.69Q60.54 7.34 60.42 7.90L60.42 7.90L60.42 7.90Q60.34 8.57 60.34 9.28L60.34 9.28L60.34 9.28Q60.34 9.51 60.44 9.70L60.44 9.70L60.44 9.70Q60.47 9.76 60.54 9.79L60.54 9.79L60.54 9.79Q60.61 9.83 60.63 9.83L60.63 9.83L60.63 9.83Q60.69 9.83 60.82 9.59L60.82 9.59L60.82 9.59Q60.94 9.35 61.10 8.90L61.10 8.90L61.10 8.90Q61.25 8.50 61.29 8.15L61.29 8.15L61.29 8.15Q61.33 7.80 61.40 7.43L61.40 7.43L61.40 7.43Q61.43 7.32 61.45 7.22L61.45 7.22L61.45 7.22Q61.46 7.13 61.47 7.01L61.47 7.01L61.47 7.01Q61.49 6.90 61.47 6.86L61.47 6.86L61.47 6.86Q61.45 6.82 61.49 6.76L61.49 6.76L61.49 6.76Q61.53 6.71 61.58 6.71L61.58 6.71L61.58 6.71Q61.63 6.71 61.66 6.71L61.66 6.71L61.66 6.71Q61.68 6.71 61.73 6.71L61.73 6.71L61.73 6.71Q61.77 6.72 61.80 6.72L61.80 6.72L61.80 6.72Q61.85 6.72 61.89 6.75L61.89 6.75L61.89 6.75Q61.94 6.79 61.99 6.80L61.99 6.80L61.99 6.80Q62.05 6.82 62.08 6.84L62.08 6.84L62.08 6.84Q62.12 6.86 62.16 6.89L62.16 6.89L62.16 6.89Q62.22 6.90 62.27 6.93L62.27 6.93L62.27 6.93Q62.31 6.96 62.35 7L62.35 7L62.35 7Q62.38 7.04 62.36 7.10L62.36 7.10L62.36 7.10Q62.31 7.22 62.28 7.36L62.28 7.36L62.28 7.36Q62.24 7.50 62.22 7.64L62.22 7.64L62.22 7.64Q62.19 7.84 62.17 8.06L62.17 8.06L62.17 8.06Q62.15 8.29 62.12 8.50L62.12 8.50L62.12 8.50Q62.09 8.88 62.20 9.25L62.20 9.25L62.20 9.25Q62.26 9.41 62.29 9.46L62.29 9.46L62.29 9.46Q62.33 9.51 62.34 9.52L62.34 9.52L62.34 9.52Q62.36 9.52 62.38 9.48L62.38 9.48L62.38 9.48Q62.41 9.45 62.47 9.36L62.47 9.36L62.47 9.36Q62.52 9.27 62.62 9.09L62.62 9.09L62.62 9.09Q62.71 8.92 62.85 8.64L62.85 8.64L62.85 8.64Q63.13 8.06 63.26 7.59L63.26 7.59L63.26 7.59Q63.39 7.13 63.48 6.87L63.48 6.87L63.83 5.89L63.83 5.89Q63.85 5.78 63.93 5.62L63.93 5.62L63.93 5.62Q64.01 5.46 64.22 5.49Z"></path></g><!----><!----></svg>